<svg width="132" height="38" viewBox="0 0 132 38" fill="none" xmlns="http://www.w3.org/2000/svg">
<rect width="132" height="38" rx="5" fill="white"/>
<path d="M34.428 23C34.3347 23 34.2553 22.9673 34.19 22.902C34.1247 22.8367 34.092 22.7573 34.092 22.664V13.55C34.092 13.4473 34.12 13.3633 34.176 13.298C34.2413 13.2327 34.3253 13.2 34.428 13.2H41.764C41.8667 13.2 41.9507 13.2327 42.016 13.298C42.0813 13.3633 42.114 13.4473 42.114 13.55V22.664C42.114 22.7667 42.0813 22.8507 42.016 22.916C41.9507 22.972 41.8667 23 41.764 23H40.504C40.4107 23 40.3313 22.9673 40.266 22.902C40.2007 22.8367 40.168 22.7573 40.168 22.664V14.95H36.038V22.664C36.038 22.7573 36.0053 22.8367 35.94 22.902C35.884 22.9673 35.8047 23 35.702 23H34.428ZM47.3432 23.14C46.2512 23.14 45.4066 22.86 44.8092 22.3C44.2119 21.7307 43.8899 20.956 43.8432 19.976L43.8292 19.36L43.8432 18.744C43.8899 17.7733 44.2166 17.0033 44.8232 16.434C45.4299 15.8647 46.2699 15.58 47.3432 15.58C48.4166 15.58 49.2566 15.8647 49.8632 16.434C50.4699 17.0033 50.7966 17.7733 50.8432 18.744C50.8526 18.856 50.8572 19.0613 50.8572 19.36C50.8572 19.6587 50.8526 19.864 50.8432 19.976C50.7966 20.956 50.4746 21.7307 49.8772 22.3C49.2799 22.86 48.4352 23.14 47.3432 23.14ZM47.3432 21.754C47.8379 21.754 48.2206 21.6 48.4912 21.292C48.7619 20.9747 48.9112 20.5127 48.9392 19.906C48.9486 19.8127 48.9532 19.6307 48.9532 19.36C48.9532 19.0893 48.9486 18.9073 48.9392 18.814C48.9112 18.2073 48.7619 17.75 48.4912 17.442C48.2206 17.1247 47.8379 16.966 47.3432 16.966C46.8486 16.966 46.4659 17.1247 46.1952 17.442C45.9246 17.75 45.7752 18.2073 45.7472 18.814L45.7332 19.36L45.7472 19.906C45.7752 20.5127 45.9246 20.9747 46.1952 21.292C46.4659 21.6 46.8486 21.754 47.3432 21.754ZM52.1284 24.54C52.035 24.54 51.9557 24.5073 51.8904 24.442C51.825 24.386 51.7924 24.3067 51.7924 24.204V21.852C51.7924 21.7587 51.825 21.6793 51.8904 21.614C51.9557 21.5487 52.035 21.516 52.1284 21.516H52.2404C52.6044 21.516 52.8704 21.2267 53.0384 20.648C53.2064 20.0693 53.2904 19.1687 53.2904 17.946V16.056C53.2904 15.9533 53.323 15.874 53.3884 15.818C53.4537 15.7527 53.533 15.72 53.6264 15.72H58.6104C58.713 15.72 58.7924 15.7527 58.8484 15.818C58.9137 15.874 58.9464 15.9533 58.9464 16.056V21.502H59.5764C59.679 21.502 59.7584 21.5347 59.8144 21.6C59.8797 21.656 59.9124 21.7353 59.9124 21.838V24.204C59.9124 24.3067 59.8797 24.386 59.8144 24.442C59.7584 24.5073 59.679 24.54 59.5764 24.54H58.4284C58.3257 24.54 58.2417 24.5073 58.1764 24.442C58.111 24.3767 58.0784 24.2973 58.0784 24.204V23H53.6264V24.204C53.6264 24.3067 53.5937 24.386 53.5284 24.442C53.4724 24.5073 53.393 24.54 53.2904 24.54H52.1284ZM57.1264 21.502V17.204H55.0544V18.142C55.0544 19.7473 54.835 20.872 54.3964 21.516L57.1264 21.502ZM61.5354 23C61.4421 23 61.3627 22.9673 61.2974 22.902C61.2321 22.8367 61.1994 22.7573 61.1994 22.664V16.056C61.1994 15.9627 61.2321 15.8833 61.2974 15.818C61.3627 15.7527 61.4421 15.72 61.5354 15.72H67.5274C67.6301 15.72 67.7094 15.7527 67.7654 15.818C67.8307 15.874 67.8634 15.9533 67.8634 16.056V22.664C67.8634 22.7573 67.8307 22.8367 67.7654 22.902C67.7094 22.9673 67.6301 23 67.5274 23H66.3654C66.2721 23 66.1927 22.9673 66.1274 22.902C66.0621 22.8367 66.0294 22.7573 66.0294 22.664V17.204H63.0334V22.664C63.0334 22.7573 63.0007 22.8367 62.9354 22.902C62.8794 22.9673 62.8001 23 62.6974 23H61.5354ZM76.394 15.72C76.478 15.72 76.5527 15.7527 76.618 15.818C76.6833 15.874 76.716 15.944 76.716 16.028V22.664C76.716 22.7573 76.6833 22.8367 76.618 22.902C76.5527 22.9673 76.4733 23 76.38 23H75.218C75.1247 23 75.0453 22.9673 74.98 22.902C74.9147 22.8367 74.882 22.7573 74.882 22.664V18.17L71.522 22.776C71.438 22.9253 71.312 23 71.144 23H70.08C69.996 23 69.9213 22.972 69.856 22.916C69.7907 22.8507 69.758 22.7713 69.758 22.678V16.056C69.758 15.9627 69.7907 15.8833 69.856 15.818C69.9213 15.7527 70.0007 15.72 70.094 15.72H71.256C71.3587 15.72 71.438 15.7527 71.494 15.818C71.5593 15.874 71.592 15.9533 71.592 16.056V20.564L74.952 15.944C75.0547 15.7947 75.1807 15.72 75.33 15.72H76.394ZM81.6306 23.14C80.604 23.14 79.7826 22.8553 79.1666 22.286C78.56 21.7167 78.238 20.928 78.2006 19.92L78.1866 19.36L78.2006 18.8C78.238 17.792 78.56 17.0033 79.1666 16.434C79.7826 15.8647 80.604 15.58 81.6306 15.58C82.3586 15.58 82.9746 15.7107 83.4786 15.972C83.992 16.2333 84.37 16.5553 84.6126 16.938C84.8646 17.3113 85 17.666 85.0186 18.002C85.028 18.0953 84.9953 18.1747 84.9206 18.24C84.8553 18.3053 84.776 18.338 84.6826 18.338H83.4506C83.3573 18.338 83.2826 18.3193 83.2266 18.282C83.18 18.2353 83.1333 18.1607 83.0866 18.058C82.9466 17.694 82.76 17.4327 82.5266 17.274C82.3026 17.1153 82.0133 17.036 81.6586 17.036C81.1826 17.036 80.8093 17.19 80.5386 17.498C80.268 17.7967 80.1233 18.254 80.1046 18.87L80.0906 19.388L80.1046 19.85C80.142 21.0727 80.66 21.684 81.6586 21.684C82.0226 21.684 82.3166 21.6047 82.5406 21.446C82.7646 21.2873 82.9466 21.026 83.0866 20.662C83.1333 20.5593 83.18 20.4893 83.2266 20.452C83.2826 20.4053 83.3573 20.382 83.4506 20.382H84.6826C84.776 20.382 84.8553 20.4147 84.9206 20.48C84.9953 20.5453 85.028 20.6247 85.0186 20.718C85 21.0447 84.8693 21.3947 84.6266 21.768C84.384 22.1413 84.0106 22.4633 83.5066 22.734C83.0026 23.0047 82.3773 23.14 81.6306 23.14ZM88.5927 23.14C88.1167 23.14 87.678 23.0467 87.2767 22.86C86.8847 22.664 86.572 22.4027 86.3387 22.076C86.1147 21.7493 86.0027 21.39 86.0027 20.998C86.0027 20.3633 86.2594 19.85 86.7727 19.458C87.286 19.066 87.9907 18.8 88.8867 18.66L90.8047 18.38V18.086C90.8047 17.6753 90.702 17.3673 90.4967 17.162C90.2914 16.9567 89.96 16.854 89.5027 16.854C89.1947 16.854 88.9427 16.9147 88.7467 17.036C88.56 17.148 88.4107 17.26 88.2987 17.372C88.1867 17.4933 88.112 17.5727 88.0747 17.61C88.0374 17.722 87.9674 17.778 87.8647 17.778H86.7867C86.7027 17.778 86.628 17.75 86.5627 17.694C86.5067 17.638 86.4787 17.5633 86.4787 17.47C86.488 17.2367 86.6 16.9707 86.8147 16.672C87.0387 16.3733 87.3794 16.1167 87.8367 15.902C88.294 15.6873 88.854 15.58 89.5167 15.58C90.618 15.58 91.4207 15.8273 91.9247 16.322C92.4287 16.8167 92.6807 17.4653 92.6807 18.268V22.664C92.6807 22.7573 92.648 22.8367 92.5827 22.902C92.5267 22.9673 92.4474 23 92.3447 23H91.2107C91.1174 23 91.038 22.9673 90.9727 22.902C90.9074 22.8367 90.8747 22.7573 90.8747 22.664V22.118C90.6694 22.4167 90.3754 22.664 89.9927 22.86C89.6194 23.0467 89.1527 23.14 88.5927 23.14ZM89.0687 21.81C89.582 21.81 90.002 21.642 90.3287 21.306C90.6554 20.97 90.8187 20.48 90.8187 19.836V19.542L89.4187 19.766C88.8774 19.85 88.4667 19.9853 88.1867 20.172C87.916 20.3587 87.7807 20.5873 87.7807 20.858C87.7807 21.1567 87.9067 21.39 88.1587 21.558C88.4107 21.726 88.714 21.81 89.0687 21.81ZM96.7027 23C96.6094 23 96.5301 22.9673 96.4647 22.902C96.3994 22.8367 96.3667 22.7573 96.3667 22.664V17.204H94.0847C93.9914 17.204 93.9121 17.1713 93.8467 17.106C93.7814 17.0407 93.7487 16.9567 93.7487 16.854V16.056C93.7487 15.9533 93.7814 15.874 93.8467 15.818C93.9121 15.7527 93.9914 15.72 94.0847 15.72H100.441C100.543 15.72 100.627 15.7527 100.693 15.818C100.758 15.8833 100.791 15.9627 100.791 16.056V16.854C100.791 16.9473 100.758 17.0313 100.693 17.106C100.627 17.1713 100.543 17.204 100.441 17.204H98.1727V22.664C98.1727 22.7573 98.1401 22.8367 98.0747 22.902C98.0187 22.9673 97.9394 23 97.8367 23H96.7027ZM105.051 23.14C104.024 23.14 103.203 22.8553 102.587 22.286C101.98 21.7167 101.658 20.928 101.621 19.92L101.607 19.36L101.621 18.8C101.658 17.792 101.98 17.0033 102.587 16.434C103.203 15.8647 104.024 15.58 105.051 15.58C105.779 15.58 106.395 15.7107 106.899 15.972C107.412 16.2333 107.79 16.5553 108.033 16.938C108.285 17.3113 108.42 17.666 108.439 18.002C108.448 18.0953 108.415 18.1747 108.341 18.24C108.275 18.3053 108.196 18.338 108.103 18.338H106.871C106.777 18.338 106.703 18.3193 106.647 18.282C106.6 18.2353 106.553 18.1607 106.507 18.058C106.367 17.694 106.18 17.4327 105.947 17.274C105.723 17.1153 105.433 17.036 105.079 17.036C104.603 17.036 104.229 17.19 103.959 17.498C103.688 17.7967 103.543 18.254 103.525 18.87L103.511 19.388L103.525 19.85C103.562 21.0727 104.08 21.684 105.079 21.684C105.443 21.684 105.737 21.6047 105.961 21.446C106.185 21.2873 106.367 21.026 106.507 20.662C106.553 20.5593 106.6 20.4893 106.647 20.452C106.703 20.4053 106.777 20.382 106.871 20.382H108.103C108.196 20.382 108.275 20.4147 108.341 20.48C108.415 20.5453 108.448 20.6247 108.439 20.718C108.42 21.0447 108.289 21.3947 108.047 21.768C107.804 22.1413 107.431 22.4633 106.927 22.734C106.423 23.0047 105.797 23.14 105.051 23.14ZM115.709 15.72C115.811 15.72 115.891 15.7527 115.947 15.818C116.012 15.874 116.045 15.9533 116.045 16.056V22.664C116.045 22.7573 116.012 22.8367 115.947 22.902C115.891 22.9673 115.811 23 115.709 23H114.519C114.425 23 114.346 22.9673 114.281 22.902C114.215 22.8367 114.183 22.7573 114.183 22.664V20.522H112.937L111.551 22.79C111.467 22.93 111.35 23 111.201 23H110.039C109.955 23 109.885 22.972 109.829 22.916C109.773 22.86 109.745 22.7947 109.745 22.72C109.745 22.636 109.773 22.5613 109.829 22.496L111.299 20.186C110.86 19.9993 110.529 19.7287 110.305 19.374C110.081 19.01 109.969 18.5807 109.969 18.086C109.969 17.302 110.211 16.714 110.697 16.322C111.191 15.9207 111.91 15.72 112.853 15.72H115.709ZM114.211 17.05H112.895C112.456 17.05 112.134 17.1293 111.929 17.288C111.733 17.4467 111.635 17.7127 111.635 18.086C111.635 18.4313 111.733 18.702 111.929 18.898C112.125 19.094 112.419 19.192 112.811 19.192H114.211V17.05Z" fill="#295093"/>
<path d="M18 9.3125C13.1833 9.3125 9.28125 13.6487 9.28125 19C9.28125 24.3512 13.1839 28.6875 18 28.6875C22.8167 28.6875 26.7188 24.3512 26.7188 19C26.7188 13.6487 22.8161 9.3125 18 9.3125ZM22.2823 15.9494L20.8513 23.4419C20.7456 23.9731 20.4609 24.1019 20.0638 23.8519L17.8841 22.0669L16.8328 23.1919C16.7169 23.3206 16.6185 23.43 16.3935 23.43L16.5482 20.965L20.5875 16.91C20.7636 16.7381 20.5487 16.6406 20.3164 16.8125L15.3242 20.3044L13.1726 19.5581C12.7052 19.3944 12.6945 19.0387 13.2711 18.7887L21.6771 15.1869C22.0674 15.0306 22.4083 15.2925 22.2817 15.9488L22.2823 15.9494Z" fill="#295093"/>
</svg>
